<?xml version="1.0" standalone="no"?><!DOCTYPE svg PUBLIC "-//W3C//DTD SVG 1.1//EN" "http://www.w3.org/Graphics/SVG/1.1/DTD/svg11.dtd"><svg t="1655280901460" class="icon" viewBox="0 0 1024 1024" version="1.1" xmlns="http://www.w3.org/2000/svg" p-id="1642" width="512" height="512" xmlns:xlink="http://www.w3.org/1999/xlink"><defs><style type="text/css"></style></defs><path d="M512 512m-384 0a384 384 0 1 0 768 0 384 384 0 1 0-768 0Z" fill="#807A6E" p-id="1643"></path><path d="M341.328 682.672a169.92 169.92 0 0 1-133.6-64.32 172 172 0 0 1-32.368-146.448 168.032 168.032 0 0 1 125.872-125.888 181.568 181.568 0 0 1 41.008-4.768 166.688 166.688 0 0 1 112.608 43.6 85.424 85.424 0 0 0 114.32 0 164.48 164.48 0 0 1 112.64-43.584 182.592 182.592 0 0 1 40.992 4.752 168 168 0 0 1 125.84 125.872 172 172 0 0 1-32.368 146.464 169.92 169.92 0 0 1-133.6 64.32z" fill="#F5F5F5" p-id="1644"></path><path d="M682.672 512m-42.672 0a42.672 42.672 0 1 0 85.344 0 42.672 42.672 0 1 0-85.344 0Z" fill="#807A6E" p-id="1645"></path><path d="M341.328 512m-42.672 0a42.672 42.672 0 1 0 85.344 0 42.672 42.672 0 1 0-85.344 0Z" fill="#807A6E" p-id="1646"></path><path d="M512 768a42.72 42.72 0 0 1-42.672-42.672V640a42.672 42.672 0 0 1 85.344 0v85.328A42.72 42.72 0 0 1 512 768z" fill="#F2EDA7" p-id="1647"></path><path d="M704 490.672m-21.328 0a21.328 21.328 0 1 0 42.656 0 21.328 21.328 0 1 0-42.656 0Z" fill="#F5F5F5" p-id="1648"></path><path d="M362.672 490.672m-21.328 0a21.328 21.328 0 1 0 42.656 0 21.328 21.328 0 1 0-42.656 0Z" fill="#F5F5F5" p-id="1649"></path><path d="M736 512a53.328 53.328 0 1 0-53.328 53.328A53.376 53.376 0 0 0 736 512z m-85.328 0a32 32 0 1 1 32 32 32.032 32.032 0 0 1-32-32zM394.672 512a53.328 53.328 0 1 0-53.344 53.328A53.376 53.376 0 0 0 394.672 512z m-85.344 0a32 32 0 1 1 32 32 32.032 32.032 0 0 1-32-32z" fill="#231F20" p-id="1650"></path><path d="M512 778.672a53.376 53.376 0 0 0 53.328-53.344v-32h117.344a180.496 180.496 0 0 0 141.92-68.32 182.528 182.528 0 0 0 34.448-155.488 181.072 181.072 0 0 0-296.944-92.672 74.752 74.752 0 0 1-100.08 0.128 181.44 181.44 0 0 0-278.176 44.384 10.672 10.672 0 1 0 18.496 10.624 160.112 160.112 0 0 1 245.44-39.136 97.216 97.216 0 0 0 128.592-0.112 159.76 159.76 0 0 1 261.888 81.536 161.376 161.376 0 0 1-30.336 137.44A159.344 159.344 0 0 1 682.672 672h-117.344v-32A53.376 53.376 0 0 0 512 586.672 10.672 10.672 0 1 0 512 608a32.032 32.032 0 0 1 32 32v85.328a32 32 0 1 1-64 0V640a10.672 10.672 0 1 0-21.328 0v32h-117.344a159.344 159.344 0 0 1-125.248-60.288 161.376 161.376 0 0 1-30.336-137.44 10.656 10.656 0 1 0-20.8-4.752 182.528 182.528 0 0 0 34.448 155.472 180.496 180.496 0 0 0 141.936 68.336h117.344v32A53.376 53.376 0 0 0 512 778.672z" fill="#231F20" p-id="1651"></path><path d="M865.648 336.592a10.672 10.672 0 1 0-19.12 9.488A369.664 369.664 0 0 1 885.328 512a373.216 373.216 0 1 1-62.848-207.392 10.656 10.656 0 0 0 17.712-11.872 392.4 392.4 0 1 0 25.44 43.84z" fill="#231F20" p-id="1652"></path></svg>